<svg xmlns="http://www.w3.org/2000/svg" xmlns:xlink="http://www.w3.org/1999/xlink" width="500" zoomAndPan="magnify" viewBox="0 0 375 374.999991" height="500" preserveAspectRatio="xMidYMid meet" version="1.2"><defs><clipPath id="1739879c27"><path d="M 22 68.359375 L 357 68.359375 L 357 311.359375 L 22 311.359375 Z M 22 68.359375 "/></clipPath><clipPath id="3201826bed"><path d="M 22 68.359375 L 356 68.359375 L 356 140 L 22 140 Z M 22 68.359375 "/></clipPath><clipPath id="d0a38e9fa2"><path d="M 27 295 L 349 295 L 349 311.359375 L 27 311.359375 Z M 27 295 "/></clipPath></defs><g id="b63617e250"><path style="fill:none;stroke-width:1;stroke-linecap:round;stroke-linejoin:round;stroke:#335894;stroke-opacity:1;stroke-miterlimit:10;" d="M 141.559596 153.769816 C 141.490584 151.78968 141.418918 149.809544 141.33929 147.829408 C 141.331327 147.619996 141.32071 147.399981 141.180032 147.240934 C 141.010158 147.050078 140.72084 147.039474 140.468683 147.039474 L 116.341193 147.349616 C 115.340526 147.360219 114.52035 148.168709 114.509733 149.170705 L 114.39029 155.720794 " transform="matrix(1.471675,0,0,1.47362,-123.763245,-123.360049)"/><path style="fill:none;stroke-width:1;stroke-linecap:round;stroke-linejoin:round;stroke:#335894;stroke-opacity:1;stroke-miterlimit:10;" d="M 117.150751 147.349616 C 117.049888 149.730021 117.1189 153.189295 117.299391 155.559096 " transform="matrix(1.471675,0,0,1.47362,-123.763245,-123.360049)"/><path style="fill:none;stroke-width:1;stroke-linecap:round;stroke-linejoin:round;stroke:#335894;stroke-opacity:1;stroke-miterlimit:10;" d="M 121.46928 148.060026 C 121.909892 150.170051 121.970941 152.359599 121.631191 154.480227 " transform="matrix(1.471675,0,0,1.47362,-123.763245,-123.360049)"/><path style="fill:none;stroke-width:1;stroke-linecap:round;stroke-linejoin:round;stroke:#335894;stroke-opacity:1;stroke-miterlimit:10;" d="M 126.231075 148.431136 C 126.459344 150.519955 126.751316 152.60082 127.091065 154.671083 " transform="matrix(1.471675,0,0,1.47362,-123.763245,-123.360049)"/><path style="fill:none;stroke-width:1;stroke-linecap:round;stroke-linejoin:round;stroke:#335894;stroke-opacity:1;stroke-miterlimit:10;" d="M 131.051264 148.250883 C 131.239719 150.270781 131.430828 152.290679 131.619282 154.310576 " transform="matrix(1.471675,0,0,1.47362,-123.763245,-123.360049)"/><path style="fill:none;stroke-width:1;stroke-linecap:round;stroke-linejoin:round;stroke:#335894;stroke-opacity:1;stroke-miterlimit:10;" d="M 136.941132 147.089839 C 136.649161 149.048769 136.11034 152.60082 136.641198 154.509385 " transform="matrix(1.471675,0,0,1.47362,-123.763245,-123.360049)"/><path style="fill:none;stroke-width:1;stroke-linecap:round;stroke-linejoin:round;stroke:#335894;stroke-opacity:1;stroke-miterlimit:10;" d="M 151.189357 154.180688 C 151.17874 152.979883 151.229172 151.779077 151.340652 150.580923 C 151.380466 150.180654 151.430898 149.759179 151.691018 149.449038 C 152.03873 149.048769 152.620019 148.990452 153.150877 148.95069 C 158.669145 148.600787 164.200684 148.250883 169.718951 147.908932 C 169.888826 147.900979 170.079935 147.890376 170.220612 147.991106 C 170.401104 148.120995 170.430301 148.359565 170.440918 148.57958 C 170.578941 150.610081 170.730236 152.640582 170.878876 154.671083 " transform="matrix(1.471675,0,0,1.47362,-123.763245,-123.360049)"/><g clip-rule="nonzero" clip-path="url(#1739879c27)"><path style=" stroke:none;fill-rule:nonzero;fill:#f18881;fill-opacity:1;" d="M 24.90625 285.023438 C 24.992188 290.328125 25.140625 295.914062 27.273438 300.410156 C 31.292969 308.839844 40.253906 309.871094 47.921875 309.988281 C 108.863281 310.929688 169.820312 311.300781 230.777344 311.09375 C 252.46875 311.019531 274.207031 310.871094 295.855469 308.957031 C 311.617188 307.554688 337.472656 309.898438 345.140625 301.839844 C 356.148438 290.285156 354.589844 247.167969 354.664062 226.492188 C 354.839844 180.027344 360.535156 114.746094 348.894531 103.652344 C 335.871094 91.230469 315.015625 110.179688 309.601562 82.195312 C 308.996094 79.070312 307.097656 75.550781 305.421875 72.851562 C 303.273438 69.390625 298.488281 68.949219 294.429688 68.886719 C 256.578125 68.359375 204.390625 69.433594 166.539062 68.902344 C 164.050781 68.875 161.460938 68.859375 159.253906 69.964844 C 154.675781 72.261719 153.558594 78.113281 151.851562 82.945312 C 149.984375 88.25 145.316406 97.019531 139.8125 99.40625 C 133.21875 102.265625 117.839844 102.515625 110.644531 102.472656 C 91.441406 102.367188 72.191406 102.222656 53.027344 103.695312 C 23.082031 106.007812 23.949219 112.199219 22.640625 142.820312 C 20.609375 189.695312 24.15625 238.105469 24.90625 285.023438 Z M 24.90625 285.023438 "/></g><g clip-rule="nonzero" clip-path="url(#3201826bed)"><path style=" stroke:none;fill-rule:nonzero;fill:#f8c3c5;fill-opacity:1;" d="M 348.910156 103.636719 C 335.886719 91.214844 315.03125 110.164062 309.617188 82.179688 C 309.011719 79.054688 307.113281 75.535156 305.4375 72.835938 C 303.289062 69.375 298.503906 68.933594 294.441406 68.875 C 256.589844 68.34375 204.40625 69.417969 166.554688 68.886719 C 164.066406 68.859375 161.476562 68.84375 159.269531 69.949219 C 154.691406 72.25 153.574219 78.097656 151.867188 82.933594 C 149.996094 88.238281 145.332031 97.003906 139.828125 99.390625 C 133.21875 102.25 117.855469 102.5 110.660156 102.457031 C 91.453125 102.355469 72.203125 102.207031 53.042969 103.679688 C 24.183594 105.90625 23.949219 111.757812 22.785156 139.578125 C 31.378906 139.195312 39.960938 138.296875 48.554688 137.484375 C 62.226562 136.1875 75.957031 135.644531 89.671875 135.082031 C 119.371094 133.890625 149.070312 132.828125 178.785156 131.902344 C 188.246094 121.925781 205.566406 121.15625 218.253906 119.550781 C 228.792969 118.226562 239.3125 117.84375 249.820312 119.582031 C 252.207031 119.980469 254.53125 120.523438 256.839844 121.15625 C 260.269531 121.054688 263.832031 121.6875 267.011719 122.835938 C 267.421875 122.984375 267.804688 123.175781 268.160156 123.398438 C 273.351562 124.445312 278.355469 126.210938 282.59375 129.351562 C 307.730469 128.792969 332.660156 127.921875 355.265625 125.636719 C 354.164062 117.0625 351.851562 106.4375 348.910156 103.636719 Z M 348.910156 103.636719 "/></g><g clip-rule="nonzero" clip-path="url(#d0a38e9fa2)"><path style=" stroke:none;fill-rule:nonzero;fill:#f8c3c5;fill-opacity:1;" d="M 280.769531 297.84375 C 279.035156 297.832031 277.253906 297.84375 275.488281 297.832031 C 273.898438 298.492188 272.234375 299.007812 270.527344 299.4375 C 264.875 301.867188 259.035156 303.871094 252.957031 303.578125 C 251.792969 303.519531 250.851562 303.148438 250.085938 302.621094 C 249.496094 302.679688 248.910156 302.738281 248.320312 302.78125 C 241.890625 303.3125 235.191406 303.976562 228.761719 303.398438 C 221.976562 302.8125 215.488281 300.675781 208.953125 298.890625 C 203.417969 299.054688 197.945312 299.230469 192.617188 299.40625 C 136.664062 301.335938 83.140625 301.070312 27.140625 300.144531 C 27.1875 300.230469 27.199219 300.320312 27.246094 300.394531 C 31.261719 308.824219 40.226562 309.855469 47.894531 309.972656 C 108.835938 310.914062 169.792969 311.285156 230.75 311.078125 C 252.441406 311.003906 274.175781 310.855469 295.824219 308.941406 C 311.585938 307.542969 337.445312 309.882812 345.113281 301.824219 C 346.570312 300.292969 347.804688 298.199219 348.851562 295.679688 C 325.878906 296.578125 303.773438 297.976562 280.769531 297.84375 Z M 280.769531 297.84375 "/></g><path style="fill:none;stroke-width:1;stroke-linecap:round;stroke-linejoin:round;stroke:#335894;stroke-opacity:1;stroke-miterlimit:10;" d="M 216.869747 167.901149 C 201.169626 172.699069 187.659293 184.770741 180.540489 205.910748 C 174.578955 223.610036 178.279034 246.66921 188.39984 262.120633 C 202.549856 283.719225 227.749679 289.821331 252.591173 289.601316 C 265.809534 289.47938 280.461211 284.360715 291.330526 276.371251 C 310.040611 262.600425 315.120921 220.930093 303.619885 198.019362 C 287.449955 165.849441 247.330371 158.58099 216.869747 167.901149 Z M 216.869747 167.901149 " transform="matrix(1.471675,0,0,1.47362,-123.763245,-123.360049)"/><path style="fill:none;stroke-width:1;stroke-linecap:round;stroke-linejoin:round;stroke:#335894;stroke-opacity:1;stroke-miterlimit:10;" d="M 199.699149 253.410155 C 202.271156 258.120599 205.599635 262.499695 210.011063 265.471225 C 227.739062 277.420961 259.070293 281.309662 277.069029 268.050438 C 296.248924 253.919106 298.879325 225.099777 291.250897 203.999532 C 279.601221 171.811056 221.259942 168.359734 203.009048 196.060432 C 192.049487 212.680851 190.050808 235.710867 199.699149 253.410155 Z M 199.699149 253.410155 " transform="matrix(1.471675,0,0,1.47362,-123.763245,-123.360049)"/><path style=" stroke:none;fill-rule:nonzero;fill:#b17352;fill-opacity:1;" d="M 204.332031 229.71875 C 206.140625 233.050781 208.496094 236.144531 211.601562 238.25 C 224.109375 246.695312 246.230469 249.4375 258.929688 240.078125 C 272.46875 230.085938 274.324219 209.722656 268.9375 194.808594 C 260.710938 172.054688 219.535156 169.625 206.65625 189.195312 C 198.945312 200.941406 197.519531 217.207031 204.332031 229.71875 Z M 204.332031 229.71875 "/><path style="fill:none;stroke-width:1;stroke-linecap:round;stroke-linejoin:round;stroke:#335894;stroke-opacity:1;stroke-miterlimit:10;" d="M 196.381288 255.379688 C 199.139094 260.429433 202.719731 265.15048 207.449674 268.339374 C 226.499509 281.179774 260.150589 285.349458 279.489741 271.109443 C 300.100298 255.931051 302.919153 224.969888 294.720053 202.310982 C 282.210388 167.739451 219.529345 164.0204 199.919455 193.780758 C 188.168916 211.620537 186.018942 236.370912 196.381288 255.379688 Z M 196.381288 255.379688 " transform="matrix(1.471675,0,0,1.47362,-123.763245,-123.360049)"/><path style=" stroke:none;fill-rule:nonzero;fill:#b17352;fill-opacity:1;" d="M 300.636719 78.289062 C 300.84375 86.691406 301.625 95.074219 302.976562 103.371094 C 290.644531 103.726562 278.296875 104.0625 265.964844 104.417969 C 265.699219 104.433594 265.40625 104.417969 265.214844 104.253906 C 264.980469 104.050781 264.964844 103.710938 264.964844 103.414062 C 264.964844 95.515625 264.964844 87.617188 264.949219 79.71875 C 274.941406 79.320312 284.933594 78.703125 294.941406 78.304688 Z M 300.636719 78.289062 "/><path style=" stroke:none;fill-rule:nonzero;fill:#b17352;fill-opacity:1;" d="M 140.09375 106.125 C 140.253906 112.375 140.828125 118.609375 141.828125 124.78125 C 132.648438 125.046875 123.476562 125.296875 114.292969 125.5625 C 114.101562 125.5625 113.882812 125.5625 113.734375 125.445312 C 113.558594 125.296875 113.558594 125.046875 113.558594 124.8125 C 113.558594 118.933594 113.558594 113.054688 113.558594 107.1875 C 120.992188 106.894531 128.421875 106.4375 135.871094 106.140625 Z M 140.09375 106.125 "/><path style="fill:none;stroke-width:1;stroke-linecap:round;stroke-linejoin:round;stroke:#335894;stroke-opacity:1;stroke-miterlimit:10;" d="M 254.090846 136.810097 C 246.340322 137.09108 238.579179 137.369413 230.831309 137.650396 C 231.179021 140.250815 231.529387 142.840632 231.879753 145.441051 C 239.330343 145.30056 246.780934 144.871133 254.210289 144.160722 C 254.47041 144.139516 254.759727 144.089151 254.918985 143.890342 C 255.041082 143.731295 255.059662 143.519233 255.059662 143.331027 C 255.120711 141.798873 255.030465 140.258768 254.810159 138.750471 Z M 254.090846 136.810097 " transform="matrix(1.471675,0,0,1.47362,-123.763245,-123.360049)"/><path style="fill:none;stroke-width:1;stroke-linecap:round;stroke-linejoin:round;stroke:#335894;stroke-opacity:1;stroke-miterlimit:10;" d="M 197.450966 146.119652 C 198.390585 149.350959 201.849124 151.580268 205.198837 151.270127 C 208.551204 150.959985 211.478885 148.24028 212.219432 144.961259 C 212.389307 144.21904 212.450355 143.460915 212.338875 142.710743 C 212.03894 140.659036 210.419824 138.989042 208.551204 138.108981 C 202.860408 135.429038 195.300992 138.700106 197.450966 146.119652 Z M 197.450966 146.119652 " transform="matrix(1.471675,0,0,1.47362,-123.763245,-123.360049)"/><path style="fill:none;stroke-width:1;stroke-linecap:round;stroke-linejoin:round;stroke:#335894;stroke-opacity:1;stroke-miterlimit:10;" d="M 134.090426 184.42879 C 134.560235 186.040467 136.290831 187.159098 137.960379 187.000051 C 139.629927 186.841004 141.100404 185.489104 141.46935 183.850919 C 141.548979 183.479809 141.588793 183.100747 141.530399 182.719034 C 141.379104 181.701133 140.569546 180.860834 139.629927 180.420804 C 136.800455 179.079507 133.01013 180.709739 134.090426 184.42879 Z M 134.090426 184.42879 " transform="matrix(1.471675,0,0,1.47362,-123.763245,-123.360049)"/><path style="fill:none;stroke-width:1;stroke-linecap:round;stroke-linejoin:round;stroke:#335894;stroke-opacity:1;stroke-miterlimit:10;" d="M 133.540988 175.158997 C 133.609999 172.720275 134.379743 170.300109 135.749356 168.269608 C 136.381077 167.33123 137.288844 166.408757 138.419572 166.429963 C 139.189315 166.451169 139.890048 166.930961 140.341277 167.551245 C 140.789852 168.168878 141.020775 168.91905 141.201267 169.669222 C 141.660459 171.638755 141.779902 173.679859 141.548979 175.689153 " transform="matrix(1.471675,0,0,1.47362,-123.763245,-123.360049)"/></g></svg>